<svg width="898" height="256" viewBox="0 0 898 256" fill="none" xmlns="http://www.w3.org/2000/svg">
<mask id="mask0_1295_25043" style="mask-type:alpha" maskUnits="userSpaceOnUse" x="39" y="49" width="178" height="158">
<path d="M216.151 123.094C216.151 115.849 212.187 109.592 206.356 106.194V59.3239C206.356 56.6411 204.22 49.5095 196.562 49.5095C194.382 49.5095 192.219 50.2392 190.446 51.6619L164.42 72.5201C151.348 82.9876 134.936 88.7548 118.205 88.7548H59.4381C48.6182 88.7548 39.849 97.539 39.849 108.377L39.849 137.811C39.849 148.65 48.6182 157.434 59.4381 157.434H69.753C69.3275 160.647 69.0857 163.916 69.0857 167.245C69.0857 179.439 71.92 190.961 76.9091 201.26C78.4977 204.538 81.9656 206.491 85.6018 206.491H108.337C116.311 206.491 121.098 197.342 116.265 190.989C111.245 184.391 108.261 176.161 108.261 167.245C108.261 163.839 108.757 160.564 109.611 157.434H118.205C134.936 157.434 151.348 163.201 164.417 173.669L190.443 194.527C192.179 195.918 194.336 196.677 196.559 196.679C204.186 196.679 206.353 189.695 206.353 186.868V139.997C212.187 136.597 216.151 130.339 216.151 123.094ZM186.767 166.454L176.651 158.348C160.123 145.102 139.362 137.811 118.205 137.811V108.377C139.362 108.377 160.123 101.086 176.651 87.8411L186.767 79.7345V166.454Z" fill="#0F172A"/>
</mask>
<g mask="url(#mask0_1295_25043)">
<rect x="39.849" y="39.8491" width="176.302" height="176.302" fill="url(#paint0_linear_1295_25043)"/>
</g>
<g clip-path="url(#clip0_1295_25043)">
<path d="M356.191 168.192C355.167 169.045 353.247 170.197 350.431 171.648C347.7 173.099 344.33 174.379 340.319 175.488C336.308 176.597 331.871 177.109 327.007 177.024C319.583 176.853 312.927 175.531 307.039 173.056C301.236 170.496 296.287 167.04 292.191 162.688C288.18 158.336 285.108 153.344 282.975 147.712C280.842 142.08 279.775 136.064 279.775 129.664C279.775 122.496 280.842 115.925 282.975 109.952C285.194 103.979 288.308 98.816 292.319 94.464C296.415 90.112 301.279 86.7413 306.911 84.352C312.543 81.9627 318.772 80.768 325.599 80.768C331.914 80.768 337.503 81.6213 342.367 83.328C347.231 85.0347 351.199 86.8693 354.271 88.832L346.975 106.368C344.842 104.747 341.983 103.083 338.399 101.376C334.9 99.584 330.847 98.688 326.239 98.688C322.655 98.688 319.199 99.456 315.871 100.992C312.628 102.443 309.727 104.533 307.167 107.264C304.692 109.995 302.73 113.195 301.279 116.864C299.828 120.448 299.103 124.373 299.103 128.64C299.103 133.163 299.743 137.301 301.023 141.056C302.388 144.811 304.308 148.053 306.783 150.784C309.258 153.429 312.202 155.477 315.615 156.928C319.114 158.379 323.039 159.104 327.391 159.104C332.426 159.104 336.735 158.293 340.319 156.672C343.903 155.051 346.634 153.344 348.511 151.552L356.191 168.192ZM454.017 81.792V176H435.457V137.728H393.345V176H374.785V81.792H393.345V119.808H435.457V81.792H454.017ZM467.661 176L510.157 78.08H511.181L553.677 176H532.173L505.037 107.136L518.477 97.92L485.965 176H467.661ZM496.717 141.952H525.005L531.533 157.568H490.957L496.717 141.952ZM595.954 81.792C601.842 81.792 607.09 82.56 611.698 84.096C616.306 85.5467 620.146 87.68 623.218 90.496C626.375 93.2267 628.765 96.5547 630.386 100.48C632.007 104.32 632.818 108.672 632.818 113.536C632.818 117.376 632.221 121.216 631.026 125.056C629.917 128.896 628.039 132.395 625.394 135.552C622.834 138.709 619.421 141.269 615.154 143.232C610.887 145.109 605.597 146.048 599.282 146.048H585.97V176H567.41V81.792H595.954ZM599.154 128.128C601.97 128.128 604.317 127.659 606.194 126.72C608.071 125.781 609.522 124.587 610.546 123.136C611.655 121.685 612.423 120.192 612.85 118.656C613.362 117.035 613.618 115.541 613.618 114.176C613.618 113.152 613.447 111.872 613.106 110.336C612.85 108.715 612.253 107.093 611.314 105.472C610.375 103.851 608.925 102.485 606.962 101.376C605.085 100.267 602.525 99.712 599.282 99.712H585.97V128.128H599.154ZM616.562 139.648L639.858 176H618.226L594.418 140.16L616.562 139.648ZM646.885 81.792H710.373V99.712H687.461V176H668.901V99.712H646.885V81.792ZM728.285 81.792H746.845V176H728.285V81.792ZM821.464 104.576C817.88 102.613 814.211 100.992 810.456 99.712C806.787 98.432 803.331 97.792 800.088 97.792C796.077 97.792 792.92 98.6027 790.616 100.224C788.312 101.845 787.16 104.277 787.16 107.52C787.16 109.739 788.013 111.744 789.72 113.536C791.512 115.243 793.773 116.779 796.504 118.144C799.32 119.509 802.221 120.747 805.208 121.856C807.939 122.88 810.627 124.117 813.272 125.568C816.003 126.933 818.435 128.683 820.568 130.816C822.701 132.864 824.408 135.467 825.688 138.624C826.968 141.696 827.608 145.493 827.608 150.016C827.608 154.795 826.371 159.232 823.896 163.328C821.421 167.424 817.795 170.752 813.016 173.312C808.237 175.787 802.349 177.024 795.352 177.024C791.768 177.024 788.099 176.683 784.344 176C780.675 175.232 777.048 174.123 773.464 172.672C769.88 171.136 766.424 169.216 763.096 166.912L771.288 152.448C773.507 154.069 775.896 155.52 778.456 156.8C781.101 157.995 783.747 158.933 786.392 159.616C789.037 160.299 791.469 160.64 793.688 160.64C795.907 160.64 798.125 160.341 800.344 159.744C802.648 159.061 804.525 157.952 805.976 156.416C807.512 154.88 808.28 152.747 808.28 150.016C808.28 148.139 807.64 146.432 806.36 144.896C805.165 143.36 803.501 141.952 801.368 140.672C799.32 139.392 797.059 138.283 794.584 137.344C791.683 136.235 788.696 134.955 785.624 133.504C782.552 132.053 779.651 130.304 776.92 128.256C774.275 126.123 772.099 123.52 770.392 120.448C768.771 117.291 767.96 113.451 767.96 108.928C767.96 103.467 769.155 98.7307 771.544 94.72C774.019 90.7093 777.475 87.552 781.912 85.248C786.349 82.8587 791.469 81.536 797.272 81.28C804.867 81.28 811.011 82.176 815.704 83.968C820.483 85.76 824.749 87.8933 828.504 90.368L821.464 104.576Z" fill="white"/>
</g>
<defs>
<linearGradient id="paint0_linear_1295_25043" x1="128" y1="39.8491" x2="128" y2="216.151" gradientUnits="userSpaceOnUse">
<stop stop-color="#FBBF24"/>
<stop offset="1" stop-color="#F59E0B"/>
</linearGradient>
<clipPath id="clip0_1295_25043">
<rect width="561" height="96" fill="white" transform="translate(273 80)"/>
</clipPath>
</defs>
</svg>
